<svg version="1.1" id="Layer_1" xmlns="http://www.w3.org/2000/svg" xmlns:xlink="http://www.w3.org/1999/xlink" x="0px" y="0px"
	 width="100%" viewBox="0 0 721 321" enable-background="new 0 0 721 321" xml:space="preserve">
<path fill="#FEFEFE" opacity="1.000000" stroke="none" 
	d="
M437.000000,322.000000 
	C291.368134,322.000000 146.236267,322.000000 1.052201,322.000000 
	C1.052201,215.060471 1.052201,108.120918 1.052201,1.090678 
	C241.215240,1.090678 481.430542,1.090678 721.822876,1.090678 
	C721.822876,107.999771 721.822876,214.999847 721.822876,322.000000 
	C627.120850,322.000000 532.310425,322.000000 437.000000,322.000000 
M223.143219,178.500595 
	C223.095367,175.003448 223.082443,171.505432 222.994339,168.009308 
	C221.951080,126.617302 205.293350,93.316200 172.091888,68.186668 
	C141.693008,45.178360 107.645554,29.742815 71.598328,18.230068 
	C66.777534,16.690407 61.797581,19.295176 60.365067,24.093956 
	C49.241726,61.355957 42.802017,99.238121 45.238140,138.308701 
	C47.538418,175.200607 62.962578,205.163818 91.968285,228.217789 
	C119.810905,250.347290 151.185074,265.734741 184.634140,277.131805 
	C190.025482,278.968842 193.431213,281.658875 196.285248,286.750214 
	C203.382828,299.411682 213.486053,308.448303 229.223343,307.859741 
	C232.770935,307.727081 236.440552,306.677399 239.752640,305.316528 
	C246.209442,302.663422 248.090042,298.589691 245.947327,293.335022 
	C243.928665,288.384613 238.990616,286.392609 233.000092,288.858704 
	C226.767258,291.424530 221.641068,289.709473 217.738327,285.095459 
	C213.315338,279.866394 207.264328,275.254761 209.729156,266.596497 
	C217.829529,238.142075 222.862213,209.176392 223.143219,178.500595 
M513.256653,108.773613 
	C499.357483,110.802902 487.808990,117.389481 479.946289,128.800858 
	C460.805511,156.580460 459.675690,186.168655 474.996521,215.694763 
	C493.905487,252.135941 541.064636,254.037537 563.010132,219.330093 
	C578.438354,194.929855 579.301270,168.399002 568.086365,142.296982 
	C557.484497,117.621826 539.084290,107.088753 513.256653,108.773613 
M283.501434,111.746338 
	C276.690765,111.497398 269.877167,111.307922 263.070923,110.970062 
	C260.373260,110.836143 257.691772,110.896881 257.386414,114.208199 
	C257.075073,117.584839 259.305695,118.812141 262.498138,118.738457 
	C266.230682,118.652321 269.966736,118.718338 273.628174,118.718338 
	C273.628174,157.390060 273.628174,195.287094 273.628174,233.490677 
	C269.331757,233.490677 265.303375,233.118240 261.408112,233.675903 
	C259.872925,233.895691 258.634827,236.190628 257.261414,237.540588 
	C258.745544,238.744370 260.209473,240.963364 261.716949,240.993378 
	C275.344055,241.264755 288.980774,241.259720 302.608368,241.001633 
	C304.104370,240.973297 306.457520,239.087906 306.844452,237.643585 
	C307.598267,234.829849 305.501495,233.484772 302.711731,233.474823 
	C298.904114,233.461258 295.096405,233.471436 290.993011,233.471436 
	C290.993011,218.071136 290.993011,202.831161 290.993011,186.707718 
	C298.481598,186.707718 305.832153,187.330612 313.044403,186.595901 
	C339.136444,183.937943 353.319702,164.380310 347.726074,139.379456 
	C344.425293,124.626518 332.093628,114.135818 314.438660,112.355103 
	C304.539337,111.356644 294.485687,111.888893 283.501434,111.746338 
M645.403381,119.584030 
	C649.067871,119.573669 652.737244,119.681618 656.396057,119.531944 
	C670.318481,118.962418 676.386841,122.848312 678.336304,140.266479 
	C678.446899,141.254440 678.013489,142.465530 678.446167,143.222504 
	C679.448486,144.976089 680.593384,147.591400 682.100769,147.918106 
	C685.302368,148.612061 685.592834,145.818451 685.513000,143.302719 
	C685.217224,133.983978 684.895386,124.665665 684.681641,115.344940 
	C684.609741,112.211784 683.227112,110.714256 680.086914,110.891937 
	C675.604492,111.145576 671.120789,111.649490 666.640503,111.619072 
	C641.669373,111.449509 616.698730,111.185310 591.729126,110.857513 
	C588.202759,110.811218 585.448914,111.007477 585.385803,115.611671 
	C585.257874,124.931602 584.747925,134.248947 584.784729,143.565842 
	C584.790771,145.094604 586.580383,147.671356 587.897888,147.923492 
	C590.772095,148.473511 591.491089,146.152939 591.767822,143.456329 
	C592.240540,138.851288 592.841431,134.192474 594.086487,129.751968 
	C595.408020,125.038925 598.650391,120.928535 603.578003,120.447189 
	C611.100098,119.712379 618.746887,120.254555 626.362366,120.254555 
	C626.362366,157.883667 626.362366,195.567291 626.362366,233.476776 
	C622.493469,233.476776 619.017456,233.566116 615.548279,233.449982 
	C612.486938,233.347488 610.064453,234.031097 610.226318,237.660828 
	C610.381592,241.144119 612.966309,241.159317 615.659790,241.144211 
	C628.625793,241.071411 641.592529,241.072662 654.558655,241.124100 
	C657.199524,241.134567 659.934814,241.233490 660.143433,237.784592 
	C660.357361,234.246246 657.893005,233.401596 654.833191,233.459534 
	C651.089722,233.530441 647.343872,233.476425 643.621216,233.476425 
	C643.468689,232.070343 643.335754,231.415543 643.335510,230.760666 
	C643.321777,194.948105 643.308838,159.135544 643.360657,123.323067 
	C643.362427,122.131393 644.032410,120.940689 645.403381,119.584030 
M434.502014,240.521286 
	C439.321075,240.741165 444.147369,240.861404 448.956848,241.212784 
	C452.725342,241.488129 454.357025,240.190659 454.395966,236.167053 
	C454.482819,227.186615 455.164673,218.210342 455.169952,209.232101 
	C455.170990,207.472107 453.506165,204.542938 452.097534,204.188568 
	C448.969391,203.401596 448.018280,205.941910 447.911774,208.834915 
	C447.802032,211.815903 447.579651,214.821289 447.055756,217.753311 
	C445.256134,227.824982 439.851471,232.456421 429.588745,232.661896 
	C422.430695,232.805206 415.267487,232.690491 408.106567,232.690857 
	C404.358154,232.691055 400.609741,232.690887 396.877869,232.690887 
	C396.877869,194.231888 396.877869,156.545227 396.877869,118.699699 
	C400.904053,118.699699 404.549347,118.680214 408.194366,118.705765 
	C411.195679,118.726807 413.503754,117.377144 412.616333,114.340988 
	C412.184723,112.864220 409.415314,111.159081 407.671600,111.122726 
	C394.557556,110.849388 381.432892,110.841454 368.318787,111.108490 
	C366.551086,111.144485 363.644135,112.916588 363.328491,114.341858 
	C362.708282,117.142097 364.841278,118.772995 367.920288,118.718773 
	C371.705688,118.652115 375.493164,118.702850 379.461975,118.702850 
	C379.461975,157.162048 379.461975,195.166718 379.461975,233.502167 
	C375.116577,233.502167 371.093719,233.127289 367.205872,233.688202 
	C365.668518,233.910004 364.431549,236.213867 363.057800,237.569687 
	C364.569672,238.760727 365.996796,240.806015 367.610901,240.966095 
	C371.038208,241.305939 374.562378,240.465698 378.047577,240.458466 
	C396.532135,240.420135 415.016937,240.489944 434.502014,240.521286 
z"/>
<path fill="#4A8B50" opacity="1.000000" stroke="none" 
	d="
M223.151138,179.000427 
	C222.862213,209.176392 217.829529,238.142075 209.729156,266.596497 
	C207.264328,275.254761 213.315338,279.866394 217.738327,285.095459 
	C221.641068,289.709473 226.767258,291.424530 233.000092,288.858704 
	C238.990616,286.392609 243.928665,288.384613 245.947327,293.335022 
	C248.090042,298.589691 246.209442,302.663422 239.752640,305.316528 
	C236.440552,306.677399 232.770935,307.727081 229.223343,307.859741 
	C213.486053,308.448303 203.382828,299.411682 196.285248,286.750214 
	C193.431213,281.658875 190.025482,278.968842 184.634140,277.131805 
	C151.185074,265.734741 119.810905,250.347290 91.968285,228.217789 
	C62.962578,205.163818 47.538418,175.200607 45.238140,138.308701 
	C42.802017,99.238121 49.241726,61.355957 60.365067,24.093956 
	C61.797581,19.295176 66.777534,16.690407 71.598328,18.230068 
	C107.645554,29.742815 141.693008,45.178360 172.091888,68.186668 
	C205.293350,93.316200 221.951080,126.617302 222.994339,168.009308 
	C223.082443,171.505432 223.095367,175.003448 223.151138,179.000427 
M144.588394,122.084854 
	C142.888016,126.603447 141.115799,131.097076 139.532074,135.656204 
	C139.070984,136.983597 138.556259,138.779556 139.079086,139.879074 
	C141.649445,145.284409 144.560867,150.527588 147.830017,156.736130 
	C150.688599,149.041687 152.942169,142.441147 155.590973,136.003250 
	C158.017502,130.105591 163.622314,127.868568 168.462723,130.461044 
	C172.750626,132.757599 174.251846,137.099930 172.275986,142.545654 
	C168.415176,153.186401 164.333679,163.747086 160.478745,174.389908 
	C159.902756,175.980118 159.370270,178.155502 159.999146,179.512741 
	C162.525269,184.964539 165.515930,190.201096 168.721680,196.246658 
	C171.095535,189.891541 173.128799,184.448944 175.161407,179.006104 
	C175.627167,177.758911 176.015686,176.476578 176.568207,175.269180 
	C178.959000,170.044647 183.597794,167.757477 188.231216,169.464676 
	C193.096512,171.257370 195.324188,176.236679 193.307053,181.865280 
	C189.432343,192.677155 185.263397,203.383316 181.319626,214.171021 
	C180.788528,215.623810 180.165604,217.640228 180.752457,218.810104 
	C185.490891,228.255829 190.508713,237.561401 195.851486,247.687195 
	C196.460403,246.205566 196.774948,245.668594 196.905334,245.090103 
	C202.601212,219.816177 206.048584,194.295670 205.053726,168.317657 
	C203.927597,138.912064 194.993546,112.901672 172.748428,92.350288 
	C154.043762,75.069801 132.565292,62.287704 109.459862,52.059738 
	C98.401505,47.164593 87.083473,42.856049 75.742188,38.224297 
	C75.039825,39.719059 74.568756,40.420277 74.368202,41.191807 
	C66.203018,72.603600 60.839283,104.329552 63.074310,136.988861 
	C65.334702,170.018906 79.575562,196.385025 105.874084,216.553696 
	C127.352921,233.026077 151.128784,245.099625 176.179016,254.925354 
	C176.976242,255.238037 177.917084,255.184494 179.290131,255.368607 
	C178.455063,253.641800 177.920456,252.443558 177.309250,251.285736 
	C152.293503,203.898026 127.267204,156.515884 102.254204,109.126740 
	C99.457756,103.828629 96.585701,98.562622 94.019302,93.153351 
	C91.956146,88.804764 93.514633,84.335327 97.512299,81.907425 
	C101.082405,79.739166 105.954453,80.459534 108.842949,83.801132 
	C110.021133,85.164131 110.878151,86.833305 111.734169,88.441498 
	C116.634094,97.646919 121.489761,106.875900 126.899902,117.118172 
	C129.721725,109.784241 132.094269,103.471832 134.578629,97.203728 
	C136.897659,91.352722 141.783051,88.710770 146.681351,90.522598 
	C151.561111,92.327583 153.483032,97.412743 151.371765,103.530014 
	C149.308441,109.508331 147.033585,115.413651 144.588394,122.084854 
z"/>
<path fill="#151412" opacity="1.000000" stroke="none" 
	d="
M513.690674,108.692245 
	C539.084290,107.088753 557.484497,117.621826 568.086365,142.296982 
	C579.301270,168.399002 578.438354,194.929855 563.010132,219.330093 
	C541.064636,254.037537 493.905487,252.135941 474.996521,215.694763 
	C459.675690,186.168655 460.805511,156.580460 479.946289,128.800858 
	C487.808990,117.389481 499.357483,110.802902 513.690674,108.692245 
M542.266968,227.800140 
	C545.287781,222.709442 549.354736,217.958603 551.139160,212.466217 
	C557.215515,193.762558 556.876526,174.409714 554.488098,155.175415 
	C553.559753,147.699066 551.594055,140.066544 548.540527,133.198929 
	C542.361572,119.302040 530.010925,116.146683 516.103394,117.064636 
	C503.867157,117.872269 495.198120,123.855209 490.372528,135.277664 
	C485.745941,146.228958 484.829651,157.824829 484.431122,169.474136 
	C483.935211,183.971512 484.189056,198.487854 488.768280,212.429352 
	C496.257416,235.230194 522.548950,242.988724 542.266968,227.800140 
z"/>
<path fill="#151412" opacity="1.000000" stroke="none" 
	d="
M284.001495,111.738907 
	C294.485687,111.888893 304.539337,111.356644 314.438660,112.355103 
	C332.093628,114.135818 344.425293,124.626518 347.726074,139.379456 
	C353.319702,164.380310 339.136444,183.937943 313.044403,186.595901 
	C305.832153,187.330612 298.481598,186.707718 290.993011,186.707718 
	C290.993011,202.831161 290.993011,218.071136 290.993011,233.471436 
	C295.096405,233.471436 298.904114,233.461258 302.711731,233.474823 
	C305.501495,233.484772 307.598267,234.829849 306.844452,237.643585 
	C306.457520,239.087906 304.104370,240.973297 302.608368,241.001633 
	C288.980774,241.259720 275.344055,241.264755 261.716949,240.993378 
	C260.209473,240.963364 258.745544,238.744370 257.261414,237.540588 
	C258.634827,236.190628 259.872925,233.895691 261.408112,233.675903 
	C265.303375,233.118240 269.331757,233.490677 273.628174,233.490677 
	C273.628174,195.287094 273.628174,157.390060 273.628174,118.718338 
	C269.966736,118.718338 266.230682,118.652321 262.498138,118.738457 
	C259.305695,118.812141 257.075073,117.584839 257.386414,114.208199 
	C257.691772,110.896881 260.373260,110.836143 263.070923,110.970062 
	C269.877167,111.307922 276.690765,111.497398 284.001495,111.738907 
M317.438812,121.780022 
	C308.682953,120.770889 299.927094,119.761757 290.931641,118.725006 
	C290.931641,139.766113 290.931641,159.297821 290.931641,179.623688 
	C298.431458,179.222610 305.709473,179.234207 312.876251,178.346954 
	C321.505280,177.278687 327.657959,172.152161 328.691498,163.499466 
	C329.758118,154.570312 329.696960,145.391907 329.016602,136.406815 
	C328.521423,129.867737 324.703674,124.628616 317.438812,121.780022 
z"/>
<path fill="#131311" opacity="1.000000" stroke="none" 
	d="
M644.897156,119.666779 
	C644.032410,120.940689 643.362427,122.131393 643.360657,123.323067 
	C643.308838,159.135544 643.321777,194.948105 643.335510,230.760666 
	C643.335754,231.415543 643.468689,232.070343 643.621216,233.476425 
	C647.343872,233.476425 651.089722,233.530441 654.833191,233.459534 
	C657.893005,233.401596 660.357361,234.246246 660.143433,237.784592 
	C659.934814,241.233490 657.199524,241.134567 654.558655,241.124100 
	C641.592529,241.072662 628.625793,241.071411 615.659790,241.144211 
	C612.966309,241.159317 610.381592,241.144119 610.226318,237.660828 
	C610.064453,234.031097 612.486938,233.347488 615.548279,233.449982 
	C619.017456,233.566116 622.493469,233.476776 626.362366,233.476776 
	C626.362366,195.567291 626.362366,157.883667 626.362366,120.254555 
	C618.746887,120.254555 611.100098,119.712379 603.578003,120.447189 
	C598.650391,120.928535 595.408020,125.038925 594.086487,129.751968 
	C592.841431,134.192474 592.240540,138.851288 591.767822,143.456329 
	C591.491089,146.152939 590.772095,148.473511 587.897888,147.923492 
	C586.580383,147.671356 584.790771,145.094604 584.784729,143.565842 
	C584.747925,134.248947 585.257874,124.931602 585.385803,115.611671 
	C585.448914,111.007477 588.202759,110.811218 591.729126,110.857513 
	C616.698730,111.185310 641.669373,111.449509 666.640503,111.619072 
	C671.120789,111.649490 675.604492,111.145576 680.086914,110.891937 
	C683.227112,110.714256 684.609741,112.211784 684.681641,115.344940 
	C684.895386,124.665665 685.217224,133.983978 685.513000,143.302719 
	C685.592834,145.818451 685.302368,148.612061 682.100769,147.918106 
	C680.593384,147.591400 679.448486,144.976089 678.446167,143.222504 
	C678.013489,142.465530 678.446899,141.254440 678.336304,140.266479 
	C676.386841,122.848312 670.318481,118.962418 656.396057,119.531944 
	C652.737244,119.681618 649.067871,119.573669 644.897156,119.666779 
z"/>
<path fill="#12110F" opacity="1.000000" stroke="none" 
	d="
M434.001831,240.521790 
	C415.016937,240.489944 396.532135,240.420135 378.047577,240.458466 
	C374.562378,240.465698 371.038208,241.305939 367.610901,240.966095 
	C365.996796,240.806015 364.569672,238.760727 363.057800,237.569702 
	C364.431549,236.213867 365.668518,233.910004 367.205872,233.688202 
	C371.093719,233.127289 375.116577,233.502167 379.461975,233.502167 
	C379.461975,195.166718 379.461975,157.162048 379.461975,118.702850 
	C375.493164,118.702850 371.705688,118.652115 367.920288,118.718773 
	C364.841278,118.772995 362.708282,117.142097 363.328491,114.341858 
	C363.644135,112.916588 366.551086,111.144485 368.318787,111.108490 
	C381.432892,110.841454 394.557556,110.849388 407.671600,111.122726 
	C409.415314,111.159081 412.184723,112.864220 412.616333,114.340988 
	C413.503754,117.377144 411.195679,118.726807 408.194366,118.705765 
	C404.549347,118.680214 400.904053,118.699699 396.877869,118.699699 
	C396.877869,156.545227 396.877869,194.231888 396.877869,232.690887 
	C400.609741,232.690887 404.358154,232.691055 408.106567,232.690857 
	C415.267487,232.690491 422.430695,232.805206 429.588745,232.661896 
	C439.851471,232.456421 445.256134,227.824982 447.055756,217.753311 
	C447.579651,214.821289 447.802032,211.815903 447.911774,208.834915 
	C448.018280,205.941910 448.969391,203.401596 452.097534,204.188568 
	C453.506165,204.542938 455.170990,207.472107 455.169952,209.232101 
	C455.164673,218.210342 454.482819,227.186615 454.395966,236.167053 
	C454.357025,240.190659 452.725342,241.488129 448.956848,241.212784 
	C444.147369,240.861404 439.321075,240.741165 434.001831,240.521790 
z"/>
<path fill="#FDFEFD" opacity="1.000000" stroke="none" 
	d="
M144.720001,121.717934 
	C147.033585,115.413651 149.308441,109.508331 151.371765,103.530014 
	C153.483032,97.412743 151.561111,92.327583 146.681351,90.522598 
	C141.783051,88.710770 136.897659,91.352722 134.578629,97.203728 
	C132.094269,103.471832 129.721725,109.784241 126.899902,117.118172 
	C121.489761,106.875900 116.634094,97.646919 111.734169,88.441498 
	C110.878151,86.833305 110.021133,85.164131 108.842949,83.801132 
	C105.954453,80.459534 101.082405,79.739166 97.512299,81.907425 
	C93.514633,84.335327 91.956146,88.804764 94.019302,93.153351 
	C96.585701,98.562622 99.457756,103.828629 102.254204,109.126740 
	C127.267204,156.515884 152.293503,203.898026 177.309250,251.285736 
	C177.920456,252.443558 178.455063,253.641800 179.290131,255.368607 
	C177.917084,255.184494 176.976242,255.238037 176.179016,254.925354 
	C151.128784,245.099625 127.352921,233.026077 105.874084,216.553696 
	C79.575562,196.385025 65.334702,170.018906 63.074310,136.988861 
	C60.839283,104.329552 66.203018,72.603600 74.368202,41.191807 
	C74.568756,40.420277 75.039825,39.719059 75.742188,38.224297 
	C87.083473,42.856049 98.401505,47.164593 109.459862,52.059738 
	C132.565292,62.287704 154.043762,75.069801 172.748428,92.350288 
	C194.993546,112.901672 203.927597,138.912064 205.053726,168.317657 
	C206.048584,194.295670 202.601212,219.816177 196.905334,245.090103 
	C196.774948,245.668594 196.460403,246.205566 195.851486,247.687195 
	C190.508713,237.561401 185.490891,228.255829 180.752457,218.810104 
	C180.165604,217.640228 180.788528,215.623810 181.319626,214.171021 
	C185.263397,203.383316 189.432343,192.677155 193.307053,181.865280 
	C195.324188,176.236679 193.096512,171.257370 188.231216,169.464676 
	C183.597794,167.757477 178.959000,170.044647 176.568207,175.269180 
	C176.015686,176.476578 175.627167,177.758911 175.161407,179.006104 
	C173.128799,184.448944 171.095535,189.891541 168.721680,196.246658 
	C165.515930,190.201096 162.525269,184.964539 159.999146,179.512741 
	C159.370270,178.155502 159.902756,175.980118 160.478745,174.389908 
	C164.333679,163.747086 168.415176,153.186401 172.275986,142.545654 
	C174.251846,137.099930 172.750626,132.757599 168.462723,130.461044 
	C163.622314,127.868568 158.017502,130.105591 155.590973,136.003250 
	C152.942169,142.441147 150.688599,149.041687 147.830017,156.736130 
	C144.560867,150.527588 141.649445,145.284409 139.079086,139.879074 
	C138.556259,138.779556 139.070984,136.983597 139.532074,135.656204 
	C141.115799,131.097076 142.888016,126.603447 144.720001,121.717934 
z"/>
<path fill="#FDFDFD" opacity="1.000000" stroke="none" 
	d="
M541.998413,228.039917 
	C522.548950,242.988724 496.257416,235.230194 488.768280,212.429352 
	C484.189056,198.487854 483.935211,183.971512 484.431122,169.474136 
	C484.829651,157.824829 485.745941,146.228958 490.372528,135.277664 
	C495.198120,123.855209 503.867157,117.872269 516.103394,117.064636 
	C530.010925,116.146683 542.361572,119.302040 548.540527,133.198929 
	C551.594055,140.066544 553.559753,147.699066 554.488098,155.175415 
	C556.876526,174.409714 557.215515,193.762558 551.139160,212.466217 
	C549.354736,217.958603 545.287781,222.709442 541.998413,228.039917 
z"/>
<path fill="#FCFCFC" opacity="1.000000" stroke="none" 
	d="
M317.809143,121.903076 
	C324.703674,124.628616 328.521423,129.867737 329.016602,136.406815 
	C329.696960,145.391907 329.758118,154.570312 328.691498,163.499466 
	C327.657959,172.152161 321.505280,177.278687 312.876251,178.346954 
	C305.709473,179.234207 298.431458,179.222610 290.931641,179.623688 
	C290.931641,159.297821 290.931641,139.766113 290.931641,118.725006 
	C299.927094,119.761757 308.682953,120.770889 317.809143,121.903076 
z"/>
</svg>